<svg xmlns="http://www.w3.org/2000/svg" width="1296" viewBox="0 0 1296 1728" height="1728" version="1.0"><defs><clipPath id="a"><path d="M 393 473.792969 L 911 473.792969 L 911 1082.792969 L 393 1082.792969 Z M 393 473.792969"/></clipPath></defs><g clip-path="url(#a)"><path fill="#FFF" d="M 651.875 1082.792969 C 685.527344 1082.792969 712.78125 1055.539062 712.78125 1021.890625 L 590.972656 1021.890625 C 590.972656 1055.539062 618.226562 1082.792969 651.875 1082.792969 Z M 849.820312 900.09375 L 849.820312 732.617188 C 849.820312 638.984375 784.804688 560.878906 697.554688 540.171875 L 697.554688 519.46875 C 697.554688 494.195312 677.152344 473.792969 651.875 473.792969 C 626.601562 473.792969 606.199219 494.195312 606.199219 519.46875 L 606.199219 540.171875 C 518.949219 560.878906 453.933594 638.984375 453.933594 732.617188 L 453.933594 900.09375 L 393.027344 960.992188 L 393.027344 991.441406 L 910.726562 991.441406 L 910.726562 960.992188 Z M 849.820312 900.09375"/></g></svg>